<?xml version="1.0" encoding="UTF-8"?>
<svg xmlns="http://www.w3.org/2000/svg" xmlns:xlink="http://www.w3.org/1999/xlink" viewBox="0 0 512 512" width="512px" height="512px">
<g id="surface70314903">
<path style=" stroke:none;fill-rule:nonzero;fill:rgb(59.215689%,87.843138%,73.333335%);fill-opacity:1;" d="M 120 32 L 496 136 L 464 416 L 120 320 Z M 120 32 "/>
<path style=" stroke:none;fill-rule:nonzero;fill:rgb(93.725491%,78.431374%,55.686277%);fill-opacity:1;" d="M 80 376 L 80 80 L 464 128 L 440 440 Z M 80 376 "/>
<path style=" stroke:none;fill-rule:nonzero;fill:rgb(67.450982%,89.019608%,100%);fill-opacity:1;" d="M 40 136 L 40 424 L 424 472 L 424 152 Z M 40 136 "/>
<path style=" stroke:none;fill-rule:nonzero;fill:rgb(55.29412%,42.352942%,62.352943%);fill-opacity:1;" d="M 498.160156 128.320312 L 122.160156 24.320312 C 119.761719 23.601562 117.121094 24.160156 115.121094 25.601562 C 113.199219 27.121094 112 29.519531 112 32 L 112 76 L 80.960938 72.078125 C 78.71875 71.761719 76.398438 72.480469 74.71875 74 C 72.960938 75.519531 72 77.679688 72 80 L 72 129.359375 L 40.320312 128 C 38 127.921875 36 128.71875 34.480469 130.238281 C 32.878906 131.761719 32 133.839844 32 136 L 32 424 C 32 428 35.039062 431.441406 39.039062 431.921875 L 423.039062 479.921875 C 423.359375 480 423.679688 480 424 480 C 425.921875 480 427.839844 479.28125 429.28125 478 C 431.039062 476.480469 432 474.320312 432 472 L 432 446.640625 L 438.640625 447.839844 C 439.039062 448 439.519531 448 440 448 C 441.761719 448 443.519531 447.441406 444.878906 446.320312 C 446.71875 444.960938 447.839844 442.878906 448 440.640625 L 449.601562 420.238281 L 461.839844 423.679688 C 462.558594 423.921875 463.28125 424 464 424 C 465.601562 424 467.121094 423.519531 468.480469 422.640625 C 470.398438 421.359375 471.679688 419.199219 471.921875 416.878906 L 503.921875 136.878906 C 504.398438 132.960938 501.921875 129.359375 498.160156 128.320312 Z M 128 42.480469 L 361.761719 107.199219 L 128 78 Z M 416 462.960938 L 48 416.960938 L 48 144.320312 L 416 159.679688 Z M 435.121094 399.601562 L 432 398.71875 L 432 152 C 432 147.679688 428.640625 144.160156 424.320312 144 L 88 130 L 88 89.039062 L 455.441406 134.960938 Z M 457.121094 405.761719 L 450.800781 404 L 471.28125 137.519531 L 487.28125 141.921875 Z M 457.121094 405.761719 "/>
<path style=" stroke:none;fill-rule:nonzero;fill:rgb(89.019608%,94.901961%,100%);fill-opacity:1;" d="M 160 265.847656 L 144 264 L 144 360 L 352 384 L 352 288 L 256 276.921875 "/>
<path style=" stroke:none;fill-rule:nonzero;fill:rgb(55.29412%,42.352942%,62.352943%);fill-opacity:1;" d="M 352 392 C 351.695312 392 351.390625 391.984375 351.089844 391.945312 L 143.089844 367.945312 C 139.046875 367.488281 136 364.0625 136 360 L 136 264 C 136 261.71875 136.976562 259.542969 138.679688 258.03125 C 140.375 256.519531 142.640625 255.753906 144.910156 256.054688 L 160.910156 257.894531 C 165.304688 258.390625 168.449219 262.367188 167.945312 266.753906 C 167.449219 271.144531 163.503906 274.335938 159.089844 273.785156 L 152 272.976562 L 152 352.863281 L 344 375.023438 L 344 295.136719 L 255.089844 284.871094 C 250.695312 284.367188 247.550781 280.390625 248.054688 276.015625 C 248.550781 271.632812 252.632812 268.441406 256.910156 268.984375 L 352.910156 280.0625 C 356.953125 280.511719 360 283.9375 360 288 L 360 384 C 360 386.28125 359.023438 388.457031 357.320312 389.96875 C 355.847656 391.28125 353.953125 392 352 392 Z M 352 392 "/>
<path style=" stroke:none;fill-rule:nonzero;fill:rgb(55.29412%,42.352942%,62.352943%);fill-opacity:1;" d="M 94.113281 472 C 15.769531 472 2.238281 433.566406 0.0703125 417.046875 C -0.503906 412.664062 2.574219 408.648438 6.953125 408.070312 C 11.425781 407.457031 15.351562 410.574219 15.929688 414.953125 C 17.550781 427.296875 28.433594 456 94.113281 456 C 141.214844 456 201.945312 432.503906 260.671875 409.792969 C 316.214844 388.296875 368.679688 368 408 368 C 493.257812 368 511.585938 437.359375 511.761719 438.0625 C 512.839844 442.34375 510.230469 446.6875 505.9375 447.761719 C 501.664062 448.847656 497.328125 446.238281 496.238281 441.960938 C 495.609375 439.511719 480.414062 384 408 384 C 371.671875 384 320.550781 403.777344 266.449219 424.710938 C 206.34375 447.960938 144.191406 472 94.113281 472 Z M 94.113281 472 "/>
<path style=" stroke:none;fill-rule:nonzero;fill:rgb(96.862745%,63.137257%,78.431374%);fill-opacity:1;" d="M 318.542969 192 L 312 244.359375 L 384 256 L 384 203.640625 Z M 318.542969 192 "/>
<path style=" stroke:none;fill-rule:nonzero;fill:rgb(55.29412%,42.352942%,62.352943%);fill-opacity:1;" d="M 384 264 C 383.574219 264 383.152344 263.96875 382.726562 263.894531 L 310.726562 252.265625 C 306.472656 251.574219 303.535156 247.648438 304.0625 243.375 L 310.609375 191.007812 C 310.878906 188.832031 312.03125 186.855469 313.792969 185.558594 C 315.566406 184.257812 317.816406 183.726562 319.945312 184.121094 L 385.398438 195.753906 C 389.214844 196.441406 392 199.761719 392 203.632812 L 392 256 C 392 258.34375 390.96875 260.566406 389.183594 262.097656 C 387.726562 263.335938 385.878906 264 384 264 Z M 320.894531 237.703125 L 376 246.601562 L 376 210.335938 L 325.441406 201.351562 Z M 88 216 L 72 216 C 67.585938 216 64 219.574219 64 224 C 64 228.425781 67.585938 232 72 232 L 88 232 C 92.414062 232 96 228.425781 96 224 C 96 219.574219 92.414062 216 88 216 Z M 88 176 L 72 176 C 67.585938 176 64 179.574219 64 184 C 64 188.425781 67.585938 192 72 192 L 88 192 C 92.414062 192 96 188.425781 96 184 C 96 179.574219 92.414062 176 88 176 Z M 96 344 C 96 339.574219 92.414062 336 88 336 L 72 336 C 67.585938 336 64 339.574219 64 344 C 64 348.425781 67.585938 352 72 352 L 88 352 C 92.414062 352 96 348.425781 96 344 Z M 96 384 C 96 379.574219 92.414062 376 88 376 L 72 376 C 67.585938 376 64 379.574219 64 384 C 64 388.425781 67.585938 392 72 392 L 88 392 C 92.414062 392 96 388.425781 96 384 Z M 96 304 C 96 299.574219 92.414062 296 88 296 L 72 296 C 67.585938 296 64 299.574219 64 304 C 64 308.425781 67.585938 312 72 312 L 88 312 C 92.414062 312 96 308.425781 96 304 Z M 96 264 C 96 259.574219 92.414062 256 88 256 L 72 256 C 67.585938 256 64 259.574219 64 264 C 64 268.425781 67.585938 272 72 272 L 88 272 C 92.414062 272 96 268.425781 96 264 Z M 96 264 "/>
<path style=" stroke:none;fill-rule:nonzero;fill:rgb(89.019608%,94.901961%,100%);fill-opacity:1;" d="M 224 273.230469 L 192 269.535156 "/>
<path style=" stroke:none;fill-rule:nonzero;fill:rgb(55.29412%,42.352942%,62.352943%);fill-opacity:1;" d="M 224.007812 281.230469 C 223.703125 281.230469 223.390625 281.214844 223.089844 281.175781 L 191.089844 277.480469 C 186.695312 276.976562 183.550781 273 184.054688 268.625 C 184.558594 264.25 188.609375 261.078125 192.910156 261.59375 L 224.910156 265.289062 C 229.304688 265.792969 232.449219 269.769531 231.945312 274.144531 C 231.480469 278.222656 228.015625 281.230469 224.007812 281.230469 Z M 224.007812 281.230469 "/>
</g>
</svg>
