<?xml version="1.0" encoding="UTF-8"?>
<svg xmlns="http://www.w3.org/2000/svg" xmlns:xlink="http://www.w3.org/1999/xlink" viewBox="0 0 128 128" width="128px" height="128px">
<g id="surface70314995">
<path style=" stroke:none;fill-rule:nonzero;fill:rgb(59.215689%,87.843138%,73.333335%);fill-opacity:1;" d="M 30 8 L 124 34 L 116 104 L 30 80 Z M 30 8 "/>
<path style=" stroke:none;fill-rule:nonzero;fill:rgb(93.725491%,78.431374%,55.686277%);fill-opacity:1;" d="M 20 94 L 20 20 L 116 32 L 110 110 Z M 20 94 "/>
<path style=" stroke:none;fill-rule:nonzero;fill:rgb(67.450982%,89.019608%,100%);fill-opacity:1;" d="M 10 34 L 10 106 L 106 118 L 106 38 Z M 10 34 "/>
<path style=" stroke:none;fill-rule:nonzero;fill:rgb(55.29412%,42.352942%,62.352943%);fill-opacity:1;" d="M 124.539062 32.078125 L 30.539062 6.078125 C 29.941406 5.898438 29.28125 6.039062 28.78125 6.398438 C 28.300781 6.78125 28 7.378906 28 8 L 28 19 L 20.238281 18.019531 C 19.679688 17.941406 19.101562 18.121094 18.679688 18.5 C 18.238281 18.878906 18 19.421875 18 20 L 18 32.339844 L 10.078125 32 C 9.5 31.980469 9 32.179688 8.621094 32.558594 C 8.21875 32.941406 8 33.460938 8 34 L 8 106 C 8 107 8.761719 107.859375 9.761719 107.980469 L 105.761719 119.980469 C 105.839844 120 105.921875 120 106 120 C 106.480469 120 106.960938 119.820312 107.320312 119.5 C 107.761719 119.121094 108 118.578125 108 118 L 108 111.660156 L 109.660156 111.960938 C 109.761719 112 109.878906 112 110 112 C 110.441406 112 110.878906 111.859375 111.21875 111.578125 C 111.679688 111.238281 111.960938 110.71875 112 110.160156 L 112.398438 105.058594 L 115.460938 105.921875 C 115.640625 105.980469 115.820312 106 116 106 C 116.398438 106 116.78125 105.878906 117.121094 105.660156 C 117.601562 105.339844 117.921875 104.800781 117.980469 104.21875 L 125.980469 34.21875 C 126.101562 33.238281 125.480469 32.339844 124.539062 32.078125 Z M 32 10.621094 L 90.441406 26.800781 L 32 19.5 Z M 104 115.738281 L 12 104.238281 L 12 36.078125 L 104 39.921875 Z M 108.78125 99.898438 L 108 99.679688 L 108 38 C 108 36.921875 107.160156 36.039062 106.078125 36 L 22 32.5 L 22 22.261719 L 113.859375 33.738281 Z M 114.28125 101.441406 L 112.699219 101 L 117.820312 34.378906 L 121.820312 35.480469 Z M 114.28125 101.441406 "/>
<path style=" stroke:none;fill-rule:nonzero;fill:rgb(89.019608%,94.901961%,100%);fill-opacity:1;" d="M 40 66.460938 L 36 66 L 36 90 L 88 96 L 88 72 L 64 69.230469 "/>
<path style=" stroke:none;fill-rule:nonzero;fill:rgb(55.29412%,42.352942%,62.352943%);fill-opacity:1;" d="M 88 98 C 87.925781 98 87.847656 97.996094 87.773438 97.984375 L 35.773438 91.984375 C 34.761719 91.871094 34 91.015625 34 90 L 34 66 C 34 65.429688 34.242188 64.886719 34.671875 64.507812 C 35.09375 64.128906 35.660156 63.9375 36.226562 64.015625 L 40.226562 64.472656 C 41.324219 64.597656 42.113281 65.59375 41.984375 66.6875 C 41.863281 67.785156 40.875 68.585938 39.773438 68.445312 L 38 68.242188 L 38 88.214844 L 86 93.757812 L 86 73.785156 L 63.773438 71.21875 C 62.675781 71.09375 61.886719 70.097656 62.015625 69.003906 C 62.136719 67.90625 63.15625 67.109375 64.226562 67.246094 L 88.226562 70.015625 C 89.238281 70.128906 90 70.984375 90 72 L 90 96 C 90 96.570312 89.757812 97.113281 89.328125 97.492188 C 88.960938 97.820312 88.488281 98 88 98 Z M 88 98 "/>
<path style=" stroke:none;fill-rule:nonzero;fill:rgb(55.29412%,42.352942%,62.352943%);fill-opacity:1;" d="M 23.527344 118 C 3.941406 118 0.558594 108.390625 0.0195312 104.261719 C -0.125 103.164062 0.644531 102.160156 1.738281 102.019531 C 2.855469 101.863281 3.839844 102.644531 3.980469 103.738281 C 4.386719 106.824219 7.109375 114 23.527344 114 C 35.304688 114 50.484375 108.125 65.167969 102.449219 C 79.054688 97.074219 92.171875 92 102 92 C 123.3125 92 127.894531 109.339844 127.941406 109.515625 C 128.210938 110.585938 127.558594 111.671875 126.484375 111.941406 C 125.414062 112.210938 124.332031 111.558594 124.058594 110.488281 C 123.902344 109.878906 120.105469 96 102 96 C 92.917969 96 80.136719 100.945312 66.613281 106.179688 C 51.585938 111.988281 36.046875 118 23.527344 118 Z M 23.527344 118 "/>
<path style=" stroke:none;fill-rule:nonzero;fill:rgb(96.862745%,63.137257%,78.431374%);fill-opacity:1;" d="M 79.636719 48 L 78 61.089844 L 96 64 L 96 50.910156 Z M 79.636719 48 "/>
<path style=" stroke:none;fill-rule:nonzero;fill:rgb(55.29412%,42.352942%,62.352943%);fill-opacity:1;" d="M 96 66 C 95.894531 66 95.789062 65.992188 95.683594 65.972656 L 77.683594 63.066406 C 76.617188 62.894531 75.882812 61.910156 76.015625 60.84375 L 77.652344 47.753906 C 77.71875 47.207031 78.007812 46.714844 78.449219 46.390625 C 78.890625 46.0625 79.453125 45.933594 79.984375 46.03125 L 96.351562 48.9375 C 97.304688 49.109375 98 49.941406 98 50.90625 L 98 64 C 98 64.585938 97.742188 65.140625 97.296875 65.523438 C 96.933594 65.835938 96.46875 66 96 66 Z M 80.222656 59.425781 L 94 61.648438 L 94 52.585938 L 81.359375 50.339844 Z M 22 54 L 18 54 C 16.894531 54 16 54.894531 16 56 C 16 57.105469 16.894531 58 18 58 L 22 58 C 23.105469 58 24 57.105469 24 56 C 24 54.894531 23.105469 54 22 54 Z M 22 44 L 18 44 C 16.894531 44 16 44.894531 16 46 C 16 47.105469 16.894531 48 18 48 L 22 48 C 23.105469 48 24 47.105469 24 46 C 24 44.894531 23.105469 44 22 44 Z M 24 86 C 24 84.894531 23.105469 84 22 84 L 18 84 C 16.894531 84 16 84.894531 16 86 C 16 87.105469 16.894531 88 18 88 L 22 88 C 23.105469 88 24 87.105469 24 86 Z M 24 96 C 24 94.894531 23.105469 94 22 94 L 18 94 C 16.894531 94 16 94.894531 16 96 C 16 97.105469 16.894531 98 18 98 L 22 98 C 23.105469 98 24 97.105469 24 96 Z M 24 76 C 24 74.894531 23.105469 74 22 74 L 18 74 C 16.894531 74 16 74.894531 16 76 C 16 77.105469 16.894531 78 18 78 L 22 78 C 23.105469 78 24 77.105469 24 76 Z M 24 66 C 24 64.894531 23.105469 64 22 64 L 18 64 C 16.894531 64 16 64.894531 16 66 C 16 67.105469 16.894531 68 18 68 L 22 68 C 23.105469 68 24 67.105469 24 66 Z M 24 66 "/>
<path style=" stroke:none;fill-rule:nonzero;fill:rgb(89.019608%,94.901961%,100%);fill-opacity:1;" d="M 56 68.308594 L 48 67.382812 "/>
<path style=" stroke:none;fill-rule:nonzero;fill:rgb(55.29412%,42.352942%,62.352943%);fill-opacity:1;" d="M 56.003906 70.308594 C 55.925781 70.308594 55.847656 70.304688 55.773438 70.292969 L 47.773438 69.371094 C 46.675781 69.242188 45.886719 68.25 46.015625 67.15625 C 46.140625 66.0625 47.152344 65.269531 48.226562 65.398438 L 56.226562 66.320312 C 57.324219 66.449219 58.113281 67.441406 57.984375 68.535156 C 57.871094 69.554688 57.003906 70.308594 56.003906 70.308594 Z M 56.003906 70.308594 "/>
</g>
</svg>
