<?xml version="1.0" encoding="UTF-8"?>
<svg xmlns="http://www.w3.org/2000/svg" xmlns:xlink="http://www.w3.org/1999/xlink" viewBox="0 0 64 64" width="64px" height="64px">
<g id="surface70315133">
<path style=" stroke:none;fill-rule:nonzero;fill:rgb(59.215689%,87.843138%,73.333335%);fill-opacity:1;" d="M 15 4 L 62 17 L 58 52 L 15 40 Z M 15 4 "/>
<path style=" stroke:none;fill-rule:nonzero;fill:rgb(93.725491%,78.431374%,55.686277%);fill-opacity:1;" d="M 10 47 L 10 10 L 58 16 L 55 55 Z M 10 47 "/>
<path style=" stroke:none;fill-rule:nonzero;fill:rgb(67.450982%,89.019608%,100%);fill-opacity:1;" d="M 5 17 L 5 53 L 53 59 L 53 19 Z M 5 17 "/>
<path style=" stroke:none;fill-rule:nonzero;fill:rgb(55.29412%,42.352942%,62.352943%);fill-opacity:1;" d="M 62.269531 16.039062 L 15.269531 3.039062 C 14.96875 2.949219 14.640625 3.019531 14.390625 3.199219 C 14.148438 3.390625 14 3.691406 14 4 L 14 9.5 L 10.121094 9.011719 C 9.839844 8.96875 9.550781 9.058594 9.339844 9.25 C 9.121094 9.441406 9 9.710938 9 10 L 9 16.171875 L 5.039062 16 C 4.75 15.988281 4.5 16.089844 4.308594 16.28125 C 4.109375 16.46875 4 16.730469 4 17 L 4 53 C 4 53.5 4.378906 53.929688 4.878906 53.988281 L 52.878906 59.988281 C 52.921875 60 52.960938 60 53 60 C 53.238281 60 53.480469 59.910156 53.660156 59.75 C 53.878906 59.558594 54 59.289062 54 59 L 54 55.828125 L 54.828125 55.980469 C 54.878906 56 54.941406 56 55 56 C 55.21875 56 55.441406 55.929688 55.609375 55.789062 C 55.839844 55.621094 55.980469 55.359375 56 55.078125 L 56.199219 52.53125 L 57.730469 52.960938 C 57.820312 52.988281 57.910156 53 58 53 C 58.199219 53 58.390625 52.941406 58.558594 52.828125 C 58.800781 52.671875 58.960938 52.398438 58.988281 52.109375 L 62.988281 17.109375 C 63.050781 16.621094 62.738281 16.171875 62.269531 16.039062 Z M 16 5.308594 L 45.21875 13.398438 L 16 9.75 Z M 52 57.871094 L 6 52.121094 L 6 18.039062 L 52 19.960938 Z M 54.390625 49.949219 L 54 49.839844 L 54 19 C 54 18.460938 53.578125 18.019531 53.039062 18 L 11 16.25 L 11 11.128906 L 56.929688 16.871094 Z M 57.140625 50.71875 L 56.351562 50.5 L 58.910156 17.191406 L 60.910156 17.738281 Z M 57.140625 50.71875 "/>
<path style=" stroke:none;fill-rule:nonzero;fill:rgb(89.019608%,94.901961%,100%);fill-opacity:1;" d="M 20 33.230469 L 18 33 L 18 45 L 44 48 L 44 36 L 32 34.613281 "/>
<path style=" stroke:none;fill-rule:nonzero;fill:rgb(55.29412%,42.352942%,62.352943%);fill-opacity:1;" d="M 44 49 C 43.960938 49 43.925781 48.996094 43.886719 48.992188 L 17.886719 45.992188 C 17.382812 45.9375 17 45.507812 17 45 L 17 33 C 17 32.714844 17.121094 32.441406 17.335938 32.253906 C 17.546875 32.066406 17.828125 31.96875 18.113281 32.007812 L 20.113281 32.238281 C 20.664062 32.300781 21.054688 32.796875 20.992188 33.34375 C 20.929688 33.894531 20.4375 34.292969 19.886719 34.222656 L 19 34.121094 L 19 44.109375 L 43 46.878906 L 43 36.890625 L 31.886719 35.609375 C 31.335938 35.546875 30.945312 35.050781 31.007812 34.503906 C 31.070312 33.953125 31.578125 33.554688 32.113281 33.621094 L 44.113281 35.007812 C 44.617188 35.0625 45 35.492188 45 36 L 45 48 C 45 48.285156 44.878906 48.558594 44.664062 48.746094 C 44.480469 48.910156 44.242188 49 44 49 Z M 44 49 "/>
<path style=" stroke:none;fill-rule:nonzero;fill:rgb(55.29412%,42.352942%,62.352943%);fill-opacity:1;" d="M 11.765625 59 C 1.972656 59 0.28125 54.195312 0.0078125 52.132812 C -0.0625 51.582031 0.320312 51.082031 0.867188 51.007812 C 1.429688 50.933594 1.917969 51.320312 1.992188 51.867188 C 2.195312 53.410156 3.554688 57 11.765625 57 C 17.652344 57 25.242188 54.0625 32.585938 51.222656 C 39.527344 48.535156 46.085938 46 51 46 C 61.65625 46 63.949219 54.671875 63.96875 54.757812 C 64.105469 55.292969 63.777344 55.835938 63.242188 55.96875 C 62.707031 56.105469 62.164062 55.78125 62.03125 55.246094 C 61.949219 54.9375 60.050781 48 51 48 C 46.460938 48 40.070312 50.472656 33.304688 53.089844 C 25.792969 55.996094 18.023438 59 11.765625 59 Z M 11.765625 59 "/>
<path style=" stroke:none;fill-rule:nonzero;fill:rgb(96.862745%,63.137257%,78.431374%);fill-opacity:1;" d="M 39.816406 24 L 39 30.546875 L 48 32 L 48 25.453125 Z M 39.816406 24 "/>
<path style=" stroke:none;fill-rule:nonzero;fill:rgb(55.29412%,42.352942%,62.352943%);fill-opacity:1;" d="M 48 33 C 47.945312 33 47.894531 32.996094 47.839844 32.988281 L 38.839844 31.53125 C 38.308594 31.445312 37.941406 30.957031 38.007812 30.421875 L 38.824219 23.875 C 38.859375 23.605469 39.003906 23.355469 39.222656 23.195312 C 39.445312 23.03125 39.726562 22.964844 39.992188 23.015625 L 48.175781 24.46875 C 48.652344 24.554688 49 24.96875 49 25.453125 L 49 32 C 49 32.292969 48.871094 32.570312 48.648438 32.761719 C 48.464844 32.917969 48.234375 33 48 33 Z M 40.113281 29.714844 L 47 30.824219 L 47 26.292969 L 40.679688 25.167969 Z M 11 27 L 9 27 C 8.449219 27 8 27.445312 8 28 C 8 28.554688 8.449219 29 9 29 L 11 29 C 11.550781 29 12 28.554688 12 28 C 12 27.445312 11.550781 27 11 27 Z M 11 22 L 9 22 C 8.449219 22 8 22.445312 8 23 C 8 23.554688 8.449219 24 9 24 L 11 24 C 11.550781 24 12 23.554688 12 23 C 12 22.445312 11.550781 22 11 22 Z M 12 43 C 12 42.445312 11.550781 42 11 42 L 9 42 C 8.449219 42 8 42.445312 8 43 C 8 43.554688 8.449219 44 9 44 L 11 44 C 11.550781 44 12 43.554688 12 43 Z M 12 48 C 12 47.445312 11.550781 47 11 47 L 9 47 C 8.449219 47 8 47.445312 8 48 C 8 48.554688 8.449219 49 9 49 L 11 49 C 11.550781 49 12 48.554688 12 48 Z M 12 38 C 12 37.445312 11.550781 37 11 37 L 9 37 C 8.449219 37 8 37.445312 8 38 C 8 38.554688 8.449219 39 9 39 L 11 39 C 11.550781 39 12 38.554688 12 38 Z M 12 33 C 12 32.445312 11.550781 32 11 32 L 9 32 C 8.449219 32 8 32.445312 8 33 C 8 33.554688 8.449219 34 9 34 L 11 34 C 11.550781 34 12 33.554688 12 33 Z M 12 33 "/>
<path style=" stroke:none;fill-rule:nonzero;fill:rgb(89.019608%,94.901961%,100%);fill-opacity:1;" d="M 28 34.152344 L 24 33.691406 "/>
<path style=" stroke:none;fill-rule:nonzero;fill:rgb(55.29412%,42.352942%,62.352943%);fill-opacity:1;" d="M 28 35.152344 C 27.964844 35.152344 27.925781 35.152344 27.886719 35.148438 L 23.886719 34.683594 C 23.335938 34.621094 22.945312 34.125 23.007812 33.578125 C 23.070312 33.03125 23.574219 32.636719 24.113281 32.699219 L 28.113281 33.160156 C 28.664062 33.222656 29.054688 33.722656 28.992188 34.269531 C 28.933594 34.777344 28.503906 35.152344 28 35.152344 Z M 28 35.152344 "/>
</g>
</svg>
